<?xml version="1.0" encoding="utf-8"?>
<svg version="1.1" xmlns="http://www.w3.org/2000/svg" viewBox="-2.04617 -0.745 2.77235 0.86">
	<defs>
		<marker id="secArrow-blue" markerWidth="3" markerHeight="4" refX="3" refY="2" orient="auto">
			<path d="M3,2 L0,4 L0,0 L3,2" fill="blue" style="stroke:none;fill-opacity:0.5"/>
		</marker>
	</defs>
	<g>
		<g>
			<g>
				<polygon id="Seg_A_1" points="0,-0 -0.0825,-0 -0.165,-0 -0.2475,-0 -0.33,-0 -0.4125,-0 -0.495,-0 -0.5775,-0 -0.66,-0 -0.66,-0.094 0,-0.094 " style="fill:#eee;stroke:darkgrey;stroke-width:0.005"/>
				<polyline points="0,-0 -0.0825,-0 -0.165,-0 -0.2475,-0 -0.33,-0 -0.4125,-0 -0.495,-0 -0.5775,-0 -0.66,-0 " style="fill:#eee;stroke:black;stroke-width:0.010"/>
				<polygon points="-0.02,-0.0188 -0.02,-0.0752 -0.04,-0.047 " style="fill:#ccc;stroke-width:0"/>
				<text x="-0.33000000000000002" y="-0.032899999999999999" text-anchor="middle" font-size="0.040000000000000001" style="fill:darkgrey">0</text>
			</g>
			<g>
				<polygon id="Seg_A_2" points="-0.66,-0 -0.7425,-0 -0.825,-0 -0.9075,-0 -0.99,-0 -1.0725,-0 -1.155,-0 -1.2375,-0 -1.32,-0 -1.32,-0.094 -0.66,-0.094 " style="fill:#eee;stroke:darkgrey;stroke-width:0.005"/>
				<polyline points="-0.66,-0 -0.7425,-0 -0.825,-0 -0.9075,-0 -0.99,-0 -1.0725,-0 -1.155,-0 -1.2375,-0 -1.32,-0 " style="fill:#eee;stroke:black;stroke-width:0.010"/>
				<polygon points="-0.68,-0.0188 -0.68,-0.0752 -0.7,-0.047 " style="fill:#ccc;stroke-width:0"/>
				<text x="-0.98999999999999999" y="-0.032899999999999999" text-anchor="middle" font-size="0.040000000000000001" style="fill:darkgrey">1</text>
			</g>
			<g>
				<polygon id="Seg_A_3" points="-1.32,-0 -1.37633,-0 -1.43266,-3.66468e-08 -1.48899,-4.17485e-05 -1.54532,-0.000445667 -1.60162,-0.00204461 -1.65778,-0.00636481 -1.7133,-0.0156938 -1.76694,-0.0326832 -1.73097,-0.119528 -1.32,-0.094 " style="fill:#eee;stroke:darkgrey;stroke-width:0.005"/>
				<polyline points="-1.32,-0 -1.37633,-0 -1.43266,-3.66468e-08 -1.48899,-4.17485e-05 -1.54532,-0.000445667 -1.60162,-0.00204461 -1.65778,-0.00636481 -1.7133,-0.0156938 -1.76694,-0.0326832 " style="fill:#eee;stroke:black;stroke-width:0.010"/>
				<polygon points="-1.34,-0.0188 -1.34,-0.0752 -1.36,-0.047 " style="fill:#ccc;stroke-width:0"/>
				<text x="-1.5446430891240248" y="-0.033340803291759029" text-anchor="middle" font-size="0.040000000000000001" style="fill:darkgrey">2</text>
			</g>
			<g>
				<polygon id="Seg_A_4" points="-1.76694,-0.0326832 -1.79405,-0.0455047 -1.81977,-0.0609216 -1.84386,-0.0787854 -1.86608,-0.0989241 -1.88621,-0.121144 -1.90408,-0.14523 -1.9195,-0.170952 -1.93232,-0.198061 -1.82748,-0.241486 -1.72351,-0.137523 " style="fill:#eee;stroke:darkgrey;stroke-width:0.005"/>
				<polyline points="-1.76694,-0.0326832 -1.79405,-0.0455047 -1.81977,-0.0609216 -1.84386,-0.0787854 -1.86608,-0.0989241 -1.88621,-0.121144 -1.90408,-0.14523 -1.9195,-0.170952 -1.93232,-0.198061 " style="fill:#eee;stroke:black;stroke-width:0.010"/>
				<polygon points="-1.77673,-0.0613047 -1.75068,-0.124208 -1.78218,-0.10041 " style="fill:#ccc;stroke-width:0"/>
				<text x="-1.8259556532740921" y="-0.12202276087590788" text-anchor="middle" font-size="0.040000000000000001" style="fill:darkgrey">3</text>
			</g>
			<g>
				<polygon id="Seg_A_5" points="-1.93232,-0.198061 -1.94242,-0.226296 -1.94971,-0.255385 -1.95411,-0.285048 -1.95558,-0.315 -1.95411,-0.344952 -1.94971,-0.374615 -1.94242,-0.403704 -1.93232,-0.431939 -1.82748,-0.388514 -1.82748,-0.241486 " style="fill:#eee;stroke:darkgrey;stroke-width:0.005"/>
				<polyline points="-1.93232,-0.198061 -1.94242,-0.226296 -1.94971,-0.255385 -1.95411,-0.285048 -1.95558,-0.315 -1.95411,-0.344952 -1.94971,-0.374615 -1.94242,-0.403704 -1.93232,-0.431939 " style="fill:#eee;stroke:black;stroke-width:0.010"/>
				<polygon points="-1.919,-0.225223 -1.8561,-0.251279 -1.8952,-0.256729 " style="fill:#ccc;stroke-width:0"/>
				<text x="-1.898838871236439" y="-0.29797841414999998" text-anchor="middle" font-size="0.040000000000000001" style="fill:darkgrey">4</text>
			</g>
			<g>
				<polygon id="Seg_A_6" points="-1.93232,-0.431939 -1.9195,-0.459048 -1.90408,-0.48477 -1.88621,-0.508856 -1.86608,-0.531076 -1.84386,-0.551215 -1.81977,-0.569078 -1.79405,-0.584495 -1.76694,-0.597317 -1.72351,-0.492477 -1.82748,-0.388514 " style="fill:#eee;stroke:darkgrey;stroke-width:0.005"/>
				<polyline points="-1.93232,-0.431939 -1.9195,-0.459048 -1.90408,-0.48477 -1.88621,-0.508856 -1.86608,-0.531076 -1.84386,-0.551215 -1.81977,-0.569078 -1.79405,-0.584495 -1.76694,-0.597317 " style="fill:#eee;stroke:black;stroke-width:0.010"/>
				<polygon points="-1.9037,-0.441732 -1.84079,-0.415676 -1.86459,-0.447182 " style="fill:#ccc;stroke-width:0"/>
				<text x="-1.8259556532740921" y="-0.47393406742409211" text-anchor="middle" font-size="0.040000000000000001" style="fill:darkgrey">5</text>
			</g>
			<g>
				<polygon id="Seg_A_7" points="-1.76694,-0.597317 -1.7133,-0.614306 -1.65778,-0.623635 -1.60162,-0.627955 -1.54532,-0.629554 -1.48899,-0.629958 -1.43266,-0.63 -1.37633,-0.63 -1.32,-0.63 -1.32,-0.536 -1.73097,-0.510472 " style="fill:#eee;stroke:darkgrey;stroke-width:0.005"/>
				<polyline points="-1.76694,-0.597317 -1.7133,-0.614306 -1.65778,-0.623635 -1.60162,-0.627955 -1.54532,-0.629554 -1.48899,-0.629958 -1.43266,-0.63 -1.37633,-0.63 -1.32,-0.63 " style="fill:#eee;stroke:black;stroke-width:0.010"/>
				<polygon points="-1.74127,-0.587602 -1.71968,-0.535495 -1.712,-0.569202 " style="fill:#ccc;stroke-width:0"/>
				<text x="-1.5446430891240248" y="-0.56845919670824108" text-anchor="middle" font-size="0.040000000000000001" style="fill:darkgrey">6</text>
			</g>
			<g>
				<polygon id="Seg_A_8" points="-1.32,-0.63 -1.2375,-0.63 -1.155,-0.63 -1.0725,-0.63 -0.99,-0.63 -0.9075,-0.63 -0.825,-0.63 -0.7425,-0.63 -0.66,-0.63 -0.66,-0.536 -1.32,-0.536 " style="fill:#eee;stroke:darkgrey;stroke-width:0.005"/>
				<polyline points="-1.32,-0.63 -1.2375,-0.63 -1.155,-0.63 -1.0725,-0.63 -0.99,-0.63 -0.9075,-0.63 -0.825,-0.63 -0.7425,-0.63 -0.66,-0.63 " style="fill:#eee;stroke:black;stroke-width:0.010"/>
				<polygon points="-1.3,-0.6112 -1.3,-0.5548 -1.28,-0.583 " style="fill:#ccc;stroke-width:0"/>
				<text x="-0.98999999999999977" y="-0.56890000000000029" text-anchor="middle" font-size="0.040000000000000001" style="fill:darkgrey">7</text>
			</g>
			<g>
				<polygon id="Seg_A_9" points="-0.66,-0.63 -0.5775,-0.63 -0.495,-0.63 -0.4125,-0.63 -0.33,-0.63 -0.2475,-0.63 -0.165,-0.63 -0.0825,-0.63 4.44089e-16,-0.63 4.85834e-16,-0.536 -0.66,-0.536 " style="fill:#eee;stroke:darkgrey;stroke-width:0.005"/>
				<polyline points="-0.66,-0.63 -0.5775,-0.63 -0.495,-0.63 -0.4125,-0.63 -0.33,-0.63 -0.2475,-0.63 -0.165,-0.63 -0.0825,-0.63 4.44089e-16,-0.63 " style="fill:#eee;stroke:black;stroke-width:0.010"/>
				<polygon points="-0.64,-0.6112 -0.64,-0.5548 -0.62,-0.583 " style="fill:#ccc;stroke-width:0"/>
				<text x="-0.32999999999999963" y="-0.56890000000000063" text-anchor="middle" font-size="0.040000000000000001" style="fill:darkgrey">8</text>
			</g>
			<g>
				<polygon id="Seg_A_10" points="4.44089e-16,-0.63 0.0563303,-0.63 0.112661,-0.63 0.168991,-0.629958 0.225319,-0.629554 0.281624,-0.627955 0.337778,-0.623635 0.393297,-0.614306 0.446939,-0.597317 0.410967,-0.510472 4.85834e-16,-0.536 " style="fill:#eee;stroke:darkgrey;stroke-width:0.005"/>
				<polyline points="4.44089e-16,-0.63 0.0563303,-0.63 0.112661,-0.63 0.168991,-0.629958 0.225319,-0.629554 0.281624,-0.627955 0.337778,-0.623635 0.393297,-0.614306 0.446939,-0.597317 " style="fill:#eee;stroke:black;stroke-width:0.010"/>
				<polygon points="0.02,-0.6112 0.02,-0.5548 0.04,-0.583 " style="fill:#ccc;stroke-width:0"/>
				<text x="0.22464308912402534" y="-0.56845919670824185" text-anchor="middle" font-size="0.040000000000000001" style="fill:darkgrey">9</text>
			</g>
			<g>
				<polygon id="Seg_A_11" points="0.446939,-0.597317 0.474048,-0.584495 0.49977,-0.569078 0.523856,-0.551215 0.546076,-0.531076 0.566215,-0.508856 0.584078,-0.48477 0.599495,-0.459048 0.612317,-0.431939 0.507477,-0.388514 0.403514,-0.492477 " style="fill:#eee;stroke:darkgrey;stroke-width:0.005"/>
				<polyline points="0.446939,-0.597317 0.474048,-0.584495 0.49977,-0.569078 0.523856,-0.551215 0.546076,-0.531076 0.566215,-0.508856 0.584078,-0.48477 0.599495,-0.459048 0.612317,-0.431939 " style="fill:#eee;stroke:black;stroke-width:0.010"/>
				<polygon points="0.456732,-0.568695 0.430676,-0.505792 0.462182,-0.52959 " style="fill:#ccc;stroke-width:0"/>
				<text x="0.50595565327409286" y="-0.47393406742409322" text-anchor="middle" font-size="0.040000000000000001" style="fill:darkgrey">10</text>
			</g>
			<g>
				<polygon id="Seg_A_12" points="0.612317,-0.431939 0.622419,-0.403704 0.629706,-0.374615 0.634106,-0.344952 0.635577,-0.315 0.634106,-0.285048 0.629706,-0.255385 0.622419,-0.226296 0.612317,-0.198061 0.507477,-0.241486 0.507477,-0.388514 " style="fill:#eee;stroke:darkgrey;stroke-width:0.005"/>
				<polyline points="0.612317,-0.431939 0.622419,-0.403704 0.629706,-0.374615 0.634106,-0.344952 0.635577,-0.315 0.634106,-0.285048 0.629706,-0.255385 0.622419,-0.226296 0.612317,-0.198061 " style="fill:#eee;stroke:black;stroke-width:0.010"/>
				<polygon points="0.599003,-0.404777 0.536099,-0.378721 0.575204,-0.373271 " style="fill:#ccc;stroke-width:0"/>
				<text x="0.57883887123643984" y="-0.29797841415000098" text-anchor="middle" font-size="0.040000000000000001" style="fill:darkgrey">11</text>
			</g>
			<g>
				<polygon id="Seg_A_13" points="0.612317,-0.198061 0.599495,-0.170952 0.584078,-0.14523 0.566215,-0.121144 0.546076,-0.0989241 0.523856,-0.0787854 0.49977,-0.0609216 0.474048,-0.0455047 0.446939,-0.0326832 0.403514,-0.137523 0.507477,-0.241486 " style="fill:#eee;stroke:darkgrey;stroke-width:0.005"/>
				<polyline points="0.612317,-0.198061 0.599495,-0.170952 0.584078,-0.14523 0.566215,-0.121144 0.546076,-0.0989241 0.523856,-0.0787854 0.49977,-0.0609216 0.474048,-0.0455047 0.446939,-0.0326832 " style="fill:#eee;stroke:black;stroke-width:0.010"/>
				<polygon points="0.583695,-0.188268 0.520792,-0.214324 0.54459,-0.182818 " style="fill:#ccc;stroke-width:0"/>
				<text x="0.50595565327409309" y="-0.12202276087590871" text-anchor="middle" font-size="0.040000000000000001" style="fill:darkgrey">12</text>
			</g>
			<g>
				<polygon id="Seg_A_14" points="0.446939,-0.0326832 0.393297,-0.0156938 0.337778,-0.00636481 0.281624,-0.00204461 0.225319,-0.000445667 0.168991,-4.17485e-05 0.112661,-3.66468e-08 0.0563303,-4.30211e-16 8.32667e-16,-3.88578e-16 7.4396e-16,-0.094 0.410967,-0.119528 " style="fill:#eee;stroke:darkgrey;stroke-width:0.005"/>
				<polyline points="0.446939,-0.0326832 0.393297,-0.0156938 0.337778,-0.00636481 0.281624,-0.00204461 0.225319,-0.000445667 0.168991,-4.17485e-05 0.112661,-3.66468e-08 0.0563303,-4.30211e-16 8.32667e-16,-3.88578e-16 " style="fill:#eee;stroke:black;stroke-width:0.010"/>
				<polygon points="0.421267,-0.0423985 0.399684,-0.0945053 0.391998,-0.0607982 " style="fill:#ccc;stroke-width:0"/>
				<text x="0.2246430891240257" y="-0.03334080329175966" text-anchor="middle" font-size="0.040000000000000001" style="fill:darkgrey">13</text>
			</g>
		</g>
		<g id="workspace">
			<g>
				<polyline id="edge" points="0,0.015 -0.0253846,0.015 -0.0507692,0.015 -0.0761538,0.015 -0.101538,0.015 -0.126923,0.015 -0.152308,0.015 -0.177692,0.015 -0.203077,0.015 -0.228462,0.015 -0.253846,0.015 -0.279231,0.015 -0.304615,0.015 -0.33,0.015 -0.355385,0.015 -0.380769,0.015 -0.406154,0.015 -0.431538,0.015 -0.456923,0.015 -0.482308,0.015 -0.507692,0.015 -0.533077,0.015 -0.558462,0.015 -0.583846,0.015 -0.609231,0.015 -0.634615,0.015 -0.66,0.015 " stroke-width="0.0050000000000000001" style="stroke:pink;fill:none"/>
				<rect id="vertex" x="-0.0049999999999995768" y="0.0099999999999998077" width="0.01" height="0.01" style="fill:red;stroke-width:0"/>
				<rect id="vertex" x="-0.66500000000000004" y="0.0099999999999999985" width="0.01" height="0.01" style="fill:red;stroke-width:0"/>
			</g>
			<g>
				<polyline id="edge" points="-0.66,0.015 -0.685385,0.015 -0.710769,0.015 -0.736154,0.015 -0.761538,0.015 -0.786923,0.015 -0.812308,0.015 -0.837692,0.015 -0.863077,0.015 -0.888462,0.015 -0.913846,0.015 -0.939231,0.015 -0.964615,0.015 -0.99,0.015 -1.01538,0.015 -1.04077,0.015 -1.06615,0.015 -1.09154,0.015 -1.11692,0.015 -1.14231,0.015 -1.16769,0.015 -1.19308,0.015 -1.21846,0.015 -1.24385,0.015 -1.26923,0.015 -1.29462,0.015 -1.32,0.015 " stroke-width="0.0050000000000000001" style="stroke:pink;fill:none"/>
				<rect id="vertex" x="-0.66500000000000004" y="0.0099999999999999985" width="0.01" height="0.01" style="fill:red;stroke-width:0"/>
				<rect id="vertex" x="-1.325" y="0.0099999999999999985" width="0.01" height="0.01" style="fill:red;stroke-width:0"/>
			</g>
			<g>
				<polyline id="edge" points="-1.32,0.015 -1.34625,0.015 -1.3725,0.015 -1.39875,0.015 -1.425,0.015 " stroke-width="0.0050000000000000001" style="stroke:pink;fill:none"/>
				<rect id="vertex" x="-1.325" y="0.0099999999999999985" width="0.01" height="0.01" style="fill:red;stroke-width:0"/>
				<rect id="vertex" x="-1.4299999999999999" y="0.0099999999999999985" width="0.01" height="0.01" style="fill:red;stroke-width:0"/>
			</g>
			<g>
				<polyline id="edge" points="-1.425,0.015 -1.45159,0.014998 -1.4782,0.0149785 -1.50483,0.0149062 -1.5315,0.0147224 -1.55823,0.0143393 -1.58502,0.0136353 -1.6119,0.0124499 -1.63887,0.0105791 -1.6659,0.0077732 -1.69293,0.00374117 -1.71988,-0.00183544 -1.74654,-0.00927084 -1.77268,-0.018825 " stroke-width="0.0050000000000000001" style="stroke:pink;fill:none"/>
				<rect id="vertex" x="-1.4299999999999999" y="0.0099999999999999985" width="0.01" height="0.01" style="fill:red;stroke-width:0"/>
				<rect id="vertex" x="-1.7776796944940081" y="-0.023825017724777367" width="0.01" height="0.01" style="fill:red;stroke-width:0"/>
			</g>
			<g>
				<polyline id="edge" points="-1.77268,-0.018825 -1.79803,-0.0306443 -1.82225,-0.0446277 -1.84516,-0.0606688 -1.86658,-0.0786455 -1.88635,-0.098421 -1.90433,-0.119845 -1.92037,-0.142754 -1.93436,-0.166974 -1.94617,-0.19232 " stroke-width="0.0050000000000000001" style="stroke:pink;fill:none"/>
				<rect id="vertex" x="-1.7776796944940081" y="-0.023825017724777367" width="0.01" height="0.01" style="fill:red;stroke-width:0"/>
				<rect id="vertex" x="-1.9511749822752225" y="-0.19732030550599172" width="0.01" height="0.01" style="fill:red;stroke-width:0"/>
			</g>
			<g>
				<polyline id="edge" points="-1.94617,-0.19232 -1.95574,-0.2186 -1.96298,-0.245614 -1.96783,-0.273156 -1.97027,-0.301017 -1.97027,-0.328983 -1.96783,-0.356844 -1.96298,-0.384386 -1.95574,-0.4114 -1.94617,-0.43768 " stroke-width="0.0050000000000000001" style="stroke:pink;fill:none"/>
				<rect id="vertex" x="-1.9511749822752225" y="-0.19732030550599172" width="0.01" height="0.01" style="fill:red;stroke-width:0"/>
				<rect id="vertex" x="-1.9511749822752225" y="-0.44267969449400824" width="0.01" height="0.01" style="fill:red;stroke-width:0"/>
			</g>
			<g>
				<polyline id="edge" points="-1.94617,-0.43768 -1.93436,-0.463026 -1.92037,-0.487246 -1.90433,-0.510155 -1.88635,-0.531579 -1.86658,-0.551355 -1.84516,-0.569331 -1.82225,-0.585372 -1.79803,-0.599356 -1.77268,-0.611175 " stroke-width="0.0050000000000000001" style="stroke:pink;fill:none"/>
				<rect id="vertex" x="-1.9511749822752225" y="-0.44267969449400824" width="0.01" height="0.01" style="fill:red;stroke-width:0"/>
				<rect id="vertex" x="-1.7776796944940081" y="-0.61617498227522272" width="0.01" height="0.01" style="fill:red;stroke-width:0"/>
			</g>
			<g>
				<polyline id="edge" points="-1.77268,-0.611175 -1.74654,-0.620729 -1.71988,-0.628165 -1.69293,-0.633741 -1.6659,-0.637773 -1.63887,-0.640579 -1.6119,-0.64245 -1.58502,-0.643635 -1.55823,-0.644339 -1.5315,-0.644722 -1.50483,-0.644906 -1.4782,-0.644978 -1.45159,-0.644998 -1.425,-0.645 " stroke-width="0.0050000000000000001" style="stroke:pink;fill:none"/>
				<rect id="vertex" x="-1.7776796944940081" y="-0.61617498227522272" width="0.01" height="0.01" style="fill:red;stroke-width:0"/>
				<rect id="vertex" x="-1.4299999999999997" y="-0.65000000000000024" width="0.01" height="0.01" style="fill:red;stroke-width:0"/>
			</g>
			<g>
				<polyline id="edge" points="-1.425,-0.645 -1.39875,-0.645 -1.3725,-0.645 -1.34625,-0.645 -1.32,-0.645 " stroke-width="0.0050000000000000001" style="stroke:pink;fill:none"/>
				<rect id="vertex" x="-1.4299999999999997" y="-0.65000000000000024" width="0.01" height="0.01" style="fill:red;stroke-width:0"/>
				<rect id="vertex" x="-1.3249999999999997" y="-0.65000000000000024" width="0.01" height="0.01" style="fill:red;stroke-width:0"/>
			</g>
			<g>
				<polyline id="edge" points="-1.32,-0.645 -1.29462,-0.645 -1.26923,-0.645 -1.24385,-0.645 -1.21846,-0.645 -1.19308,-0.645 -1.16769,-0.645 -1.14231,-0.645 -1.11692,-0.645 -1.09154,-0.645 -1.06615,-0.645 -1.04077,-0.645 -1.01538,-0.645 -0.99,-0.645 -0.964615,-0.645 -0.939231,-0.645 -0.913846,-0.645 -0.888462,-0.645 -0.863077,-0.645 -0.837692,-0.645 -0.812308,-0.645 -0.786923,-0.645 -0.761538,-0.645 -0.736154,-0.645 -0.710769,-0.645 -0.685385,-0.645 -0.66,-0.645 " stroke-width="0.0050000000000000001" style="stroke:pink;fill:none"/>
				<rect id="vertex" x="-1.3249999999999997" y="-0.65000000000000024" width="0.01" height="0.01" style="fill:red;stroke-width:0"/>
				<rect id="vertex" x="-0.6649999999999997" y="-0.65000000000000058" width="0.01" height="0.01" style="fill:red;stroke-width:0"/>
			</g>
			<g>
				<polyline id="edge" points="-0.66,-0.645 -0.634615,-0.645 -0.609231,-0.645 -0.583846,-0.645 -0.558462,-0.645 -0.533077,-0.645 -0.507692,-0.645 -0.482308,-0.645 -0.456923,-0.645 -0.431538,-0.645 -0.406154,-0.645 -0.380769,-0.645 -0.355385,-0.645 -0.33,-0.645 -0.304615,-0.645 -0.279231,-0.645 -0.253846,-0.645 -0.228462,-0.645 -0.203077,-0.645 -0.177692,-0.645 -0.152308,-0.645 -0.126923,-0.645 -0.101538,-0.645 -0.0761538,-0.645 -0.0507692,-0.645 -0.0253846,-0.645 4.37428e-16,-0.645 " stroke-width="0.0050000000000000001" style="stroke:pink;fill:none"/>
				<rect id="vertex" x="-0.6649999999999997" y="-0.65000000000000058" width="0.01" height="0.01" style="fill:red;stroke-width:0"/>
				<rect id="vertex" x="-0.004999999999999563" y="-0.65000000000000091" width="0.01" height="0.01" style="fill:red;stroke-width:0"/>
			</g>
			<g>
				<polyline id="edge" points="4.37428e-16,-0.645 0.02625,-0.645 0.0525,-0.645 0.07875,-0.645 0.105,-0.645 " stroke-width="0.0050000000000000001" style="stroke:pink;fill:none"/>
				<rect id="vertex" x="-0.004999999999999563" y="-0.65000000000000091" width="0.01" height="0.01" style="fill:red;stroke-width:0"/>
				<rect id="vertex" x="0.10000000000000046" y="-0.65000000000000091" width="0.01" height="0.01" style="fill:red;stroke-width:0"/>
			</g>
			<g>
				<polyline id="edge" points="0.105,-0.645 0.131592,-0.644998 0.158197,-0.644978 0.184829,-0.644906 0.2115,-0.644722 0.238227,-0.644339 0.265025,-0.643635 0.291905,-0.64245 0.318868,-0.640579 0.345896,-0.637773 0.372934,-0.633741 0.399876,-0.628165 0.426543,-0.620729 0.45268,-0.611175 " stroke-width="0.0050000000000000001" style="stroke:pink;fill:none"/>
				<rect id="vertex" x="0.10000000000000046" y="-0.65000000000000091" width="0.01" height="0.01" style="fill:red;stroke-width:0"/>
				<rect id="vertex" x="0.44767969449400885" y="-0.61617498227522371" width="0.01" height="0.01" style="fill:red;stroke-width:0"/>
			</g>
			<g>
				<polyline id="edge" points="0.45268,-0.611175 0.478026,-0.599356 0.502246,-0.585372 0.525155,-0.569331 0.546579,-0.551355 0.566355,-0.531579 0.584331,-0.510155 0.600372,-0.487246 0.614356,-0.463026 0.626175,-0.43768 " stroke-width="0.0050000000000000001" style="stroke:pink;fill:none"/>
				<rect id="vertex" x="0.44767969449400885" y="-0.61617498227522371" width="0.01" height="0.01" style="fill:red;stroke-width:0"/>
				<rect id="vertex" x="0.62117498227522339" y="-0.44267969449400935" width="0.01" height="0.01" style="fill:red;stroke-width:0"/>
			</g>
			<g>
				<polyline id="edge" points="0.626175,-0.43768 0.63574,-0.4114 0.642979,-0.384386 0.647835,-0.356844 0.650272,-0.328983 0.650272,-0.301017 0.647835,-0.273156 0.642979,-0.245614 0.63574,-0.2186 0.626175,-0.19232 " stroke-width="0.0050000000000000001" style="stroke:pink;fill:none"/>
				<rect id="vertex" x="0.62117498227522339" y="-0.44267969449400935" width="0.01" height="0.01" style="fill:red;stroke-width:0"/>
				<rect id="vertex" x="0.62117498227522361" y="-0.19732030550599278" width="0.01" height="0.01" style="fill:red;stroke-width:0"/>
			</g>
			<g>
				<polyline id="edge" points="0.626175,-0.19232 0.614356,-0.166974 0.600372,-0.142754 0.584331,-0.119845 0.566355,-0.098421 0.546579,-0.0786455 0.525155,-0.0606688 0.502246,-0.0446277 0.478026,-0.0306443 0.45268,-0.018825 " stroke-width="0.0050000000000000001" style="stroke:pink;fill:none"/>
				<rect id="vertex" x="0.62117498227522361" y="-0.19732030550599278" width="0.01" height="0.01" style="fill:red;stroke-width:0"/>
				<rect id="vertex" x="0.44767969449400929" y="-0.02382501772477821" width="0.01" height="0.01" style="fill:red;stroke-width:0"/>
			</g>
			<g>
				<polyline id="edge" points="0.45268,-0.018825 0.426543,-0.00927084 0.399876,-0.00183544 0.372934,0.00374117 0.345896,0.0077732 0.318868,0.0105791 0.291905,0.0124499 0.265025,0.0136353 0.238227,0.0143393 0.2115,0.0147224 0.184829,0.0149062 0.158197,0.0149785 0.131592,0.014998 0.105,0.015 " stroke-width="0.0050000000000000001" style="stroke:pink;fill:none"/>
				<rect id="vertex" x="0.44767969449400929" y="-0.02382501772477821" width="0.01" height="0.01" style="fill:red;stroke-width:0"/>
				<rect id="vertex" x="0.10000000000000094" y="0.0099999999999994919" width="0.01" height="0.01" style="fill:red;stroke-width:0"/>
			</g>
			<g>
				<polyline id="edge" points="8.46823e-16,0.015 0.02625,0.015 0.0525,0.015 0.07875,0.015 0.105,0.015 " stroke-width="0.0050000000000000001" style="stroke:pink;fill:none"/>
				<rect id="vertex" x="-0.0049999999999995768" y="0.0099999999999998077" width="0.01" height="0.01" style="fill:red;stroke-width:0"/>
				<rect id="vertex" x="0.10000000000000094" y="0.0099999999999994919" width="0.01" height="0.01" style="fill:red;stroke-width:0"/>
			</g>
		</g>
		<g id="sector">
			<polyline points="0,0.015 -0.0250322,0.015 -0.0500644,0.015 -0.0750966,0.015 -0.100129,0.015 -0.125161,0.015 -0.150193,0.015 -0.175225,0.015 -0.200258,0.015 -0.22529,0.015 -0.250322,0.015 -0.275354,0.015 -0.300386,0.015 -0.325419,0.015 -0.350451,0.015 -0.375483,0.015 -0.400515,0.015 -0.425547,0.015 -0.45058,0.015 -0.475612,0.015 -0.500644,0.015 -0.525676,0.015 -0.550709,0.015 -0.575741,0.015 -0.600773,0.015 -0.625805,0.015 -0.650837,0.015 -0.67587,0.015 -0.700902,0.015 -0.725934,0.015 -0.750966,0.015 -0.775998,0.015 -0.801031,0.015 -0.826063,0.015 -0.851095,0.015 -0.876127,0.015 -0.901159,0.015 -0.926192,0.015 -0.951224,0.015 -0.976256,0.015 -1.00129,0.015 -1.02632,0.015 -1.05135,0.015 -1.07638,0.015 -1.10142,0.015 -1.12645,0.015 -1.15148,0.015 -1.17651,0.015 -1.20155,0.015 -1.22658,0.015 -1.25161,0.015 -1.27664,0.015 -1.30167,0.015 -1.32671,0.015 -1.35174,0.015 -1.37677,0.015 -1.4018,0.015 -1.42684,0.015 -1.45187,0.0149979 -1.47692,0.0149803 -1.50199,0.014918 -1.5271,0.0147637 -1.55225,0.0144479 -1.57746,0.0138749 -1.60274,0.0129194 -1.6281,0.0114227 -1.65352,0.0091907 -1.67898,0.00599433 -1.70442,0.00157635 -1.72971,-0.00433248 -1.75467,-0.011981 -1.77909,-0.0215624 -1.80267,-0.0331093 -1.82522,-0.0465469 -1.8466,-0.0617849 -1.86666,-0.0787211 -1.88527,-0.097242 -1.9023,-0.117223 -1.91764,-0.138531 -1.93118,-0.161022 -1.94283,-0.184546 -1.95253,-0.208945 -1.96019,-0.234056 -1.96577,-0.259709 -1.96924,-0.285733 -1.97056,-0.311953 -1.96974,-0.338193 -1.96677,-0.364279 -1.96167,-0.390033 -1.95449,-0.415285 -1.94526,-0.439863 -1.93405,-0.463605 -1.92094,-0.486349 -1.90601,-0.507945 -1.88937,-0.528246 -1.87111,-0.547118 -1.85138,-0.564432 -1.83029,-0.580074 -1.808,-0.593938 -1.78465,-0.605931 -1.7604,-0.615973 -1.73554,-0.624056 -1.7103,-0.630348 -1.68489,-0.635088 -1.65943,-0.638544 -1.63399,-0.640978 -1.60862,-0.642627 -1.58332,-0.643692 -1.55809,-0.644342 -1.53293,-0.644708 -1.50781,-0.644893 -1.48274,-0.644971 -1.45768,-0.644996 -1.43265,-0.645 -1.40761,-0.645 -1.38258,-0.645 -1.35755,-0.645 -1.33252,-0.645 -1.30748,-0.645 -1.28245,-0.645 -1.25742,-0.645 -1.23239,-0.645 -1.20736,-0.645 -1.18232,-0.645 -1.15729,-0.645 -1.13226,-0.645 -1.10723,-0.645 -1.08219,-0.645 -1.05716,-0.645 -1.03213,-0.645 -1.0071,-0.645 -0.982065,-0.645 -0.957033,-0.645 -0.932001,-0.645 -0.906969,-0.645 -0.881936,-0.645 -0.856904,-0.645 -0.831872,-0.645 -0.80684,-0.645 -0.781808,-0.645 -0.756775,-0.645 -0.731743,-0.645 -0.706711,-0.645 -0.681679,-0.645 -0.656647,-0.645 -0.631614,-0.645 -0.606582,-0.645 -0.58155,-0.645 -0.556518,-0.645 -0.531486,-0.645 -0.506453,-0.645 -0.481421,-0.645 -0.456389,-0.645 -0.431357,-0.645 -0.406325,-0.645 -0.381292,-0.645 -0.35626,-0.645 -0.331228,-0.645 -0.306196,-0.645 -0.281163,-0.645 -0.256131,-0.645 -0.231099,-0.645 -0.206067,-0.645 -0.181035,-0.645 -0.156002,-0.645 -0.13097,-0.645 -0.105938,-0.645 -0.0809058,-0.645 -0.0558736,-0.645 -0.0308414,-0.645 -0.00580923,-0.645 0.019223,-0.645 0.0442552,-0.645 0.0692874,-0.645 0.0943196,-0.645 0.119353,-0.645 0.144394,-0.644992 0.169452,-0.644957 0.194539,-0.644856 0.219665,-0.644631 0.244845,-0.644201 0.270091,-0.643454 0.295411,-0.64225 0.320804,-0.640412 0.346252,-0.637729 0.371711,-0.633955 0.397087,-0.628825 0.422241,-0.622075 0.446967,-0.613477 0.470997,-0.602906 0.494083,-0.590403 0.516068,-0.576053 0.536805,-0.559952 0.556155,-0.542209 0.573988,-0.522942 0.590185,-0.50228 0.604637,-0.480362 0.617247,-0.457335 0.62793,-0.433353 0.636616,-0.408578 0.643244,-0.383175 0.647773,-0.357315 0.650169,-0.331171 0.650419,-0.304918 0.648519,-0.278734 0.644484,-0.252792 0.638339,-0.227268 0.630126,-0.202332 0.619901,-0.178151 0.607731,-0.154889 0.593698,-0.1327 0.577897,-0.111734 0.560433,-0.0921311 0.541424,-0.0740231 0.520997,-0.0575312 0.499288,-0.042766 0.476445,-0.0298267 0.452619,-0.0187999 0.428025,-0.00974855 0.402951,-0.00258795 0.377612,0.00289496 0.352162,0.00695952 0.326706,0.00987325 0.301298,0.0118872 0.275961,0.0132213 0.250698,0.0140601 0.225504,0.0145532 0.200366,0.0148176 0.175271,0.0149414 0.150207,0.0149879 0.125163,0.0149992 0.100129,0.015 0.0750966,0.015 0.0500644,0.015 0.0250322,0.015 0,0.015 " stroke="blue" style="stroke-opacity:0.5;stroke-width:0.010;fill:none;marker-end:url(#secArrow-blue)"/>
			<text x="-1.3199999999999998" y="-0.66500000000000026" text-anchor="middle" font-size="0.029999999999999999" style="fill:blue">0</text>
		</g>
		<g id="triggerpoint">
			<line x1="0" y1="0.0014999999999999996" x2="0" y2="0.028499999999999998" stroke="maroon" style="stroke-width:0.002"/>
			<polygon points="0.00675,0.0195 0.00675,0.0105 -0.009,0.015 " stroke="maroon" fill="maroon" style="stroke-width:0.004;fill-opacity:0.2"/>
			<text x="0" y="0.058999999999999997" text-anchor="middle" font-size="0.029999999999999999" style="fill:maroon">0</text>
		</g>
		<g>
			<polyline points="0.009,0.024 -1e-10,0.024 -1e-10,0.006 0.0045,0.006 " stroke="lightgrey" fill="none" style="stroke-width:0.004"/>
		</g>
		<g>
			<polyline points="-0.669,0.006 -0.66,0.006 -0.66,0.024 -0.6645,0.024 " stroke="lightgrey" fill="none" style="stroke-width:0.004"/>
		</g>
		<g>
			<polyline points="-0.651,0.024 -0.66,0.024 -0.66,0.006 -0.6555,0.006 " stroke="lightgrey" fill="none" style="stroke-width:0.004"/>
		</g>
		<g>
			<polyline points="-1.329,0.006 -1.32,0.006 -1.32,0.024 -1.3245,0.024 " stroke="lightgrey" fill="none" style="stroke-width:0.004"/>
		</g>
		<g>
			<polyline points="-1.311,0.024 -1.32,0.024 -1.32,0.006 -1.3155,0.006 " stroke="lightgrey" fill="none" style="stroke-width:0.004"/>
		</g>
		<g>
			<polyline points="-1.77755,-0.0305841 -1.76924,-0.0271399 -1.77612,-0.0105101 -1.78028,-0.0122322 " stroke="lightgrey" fill="none" style="stroke-width:0.004"/>
		</g>
		<g>
			<polyline points="-1.76781,-0.00706595 -1.77612,-0.0105101 -1.76924,-0.0271399 -1.76508,-0.0254179 " stroke="lightgrey" fill="none" style="stroke-width:0.004"/>
		</g>
		<g>
			<polyline points="-1.9413,-0.204079 -1.93786,-0.195764 -1.95449,-0.188876 -1.95621,-0.193034 " stroke="lightgrey" fill="none" style="stroke-width:0.004"/>
		</g>
		<g>
			<polyline points="-1.95105,-0.180561 -1.95449,-0.188876 -1.93786,-0.195764 -1.93614,-0.191607 " stroke="lightgrey" fill="none" style="stroke-width:0.004"/>
		</g>
		<g>
			<polyline points="-1.93442,-0.44255 -1.93786,-0.434236 -1.95449,-0.441124 -1.95277,-0.445281 " stroke="lightgrey" fill="none" style="stroke-width:0.004"/>
		</g>
		<g>
			<polyline points="-1.95793,-0.432809 -1.95449,-0.441124 -1.93786,-0.434236 -1.93958,-0.430078 " stroke="lightgrey" fill="none" style="stroke-width:0.004"/>
		</g>
		<g>
			<polyline points="-1.76092,-0.606304 -1.76924,-0.60286 -1.77612,-0.61949 -1.77197,-0.621212 " stroke="lightgrey" fill="none" style="stroke-width:0.004"/>
		</g>
		<g>
			<polyline points="-1.78444,-0.616046 -1.77612,-0.61949 -1.76924,-0.60286 -1.77339,-0.601138 " stroke="lightgrey" fill="none" style="stroke-width:0.004"/>
		</g>
		<g>
			<polyline points="-1.311,-0.636 -1.32,-0.636 -1.32,-0.654 -1.3155,-0.654 " stroke="lightgrey" fill="none" style="stroke-width:0.004"/>
		</g>
		<g>
			<polyline points="-1.329,-0.654 -1.32,-0.654 -1.32,-0.636 -1.3245,-0.636 " stroke="lightgrey" fill="none" style="stroke-width:0.004"/>
		</g>
		<g>
			<polyline points="-0.651,-0.636 -0.66,-0.636 -0.66,-0.654 -0.6555,-0.654 " stroke="lightgrey" fill="none" style="stroke-width:0.004"/>
		</g>
		<g>
			<polyline points="-0.669,-0.654 -0.66,-0.654 -0.66,-0.636 -0.6645,-0.636 " stroke="lightgrey" fill="none" style="stroke-width:0.004"/>
		</g>
		<g>
			<polyline points="0.009,-0.636 -9.99996e-11,-0.636 -9.99996e-11,-0.654 0.0045,-0.654 " stroke="lightgrey" fill="none" style="stroke-width:0.004"/>
		</g>
		<g>
			<polyline points="-0.009,-0.654 1e-10,-0.654 1e-10,-0.636 -0.0045,-0.636 " stroke="lightgrey" fill="none" style="stroke-width:0.004"/>
		</g>
		<g>
			<polyline points="0.45755,-0.599416 0.449236,-0.60286 0.456124,-0.61949 0.460281,-0.617768 " stroke="lightgrey" fill="none" style="stroke-width:0.004"/>
		</g>
		<g>
			<polyline points="0.447809,-0.622934 0.456124,-0.61949 0.449236,-0.60286 0.445078,-0.604582 " stroke="lightgrey" fill="none" style="stroke-width:0.004"/>
		</g>
		<g>
			<polyline points="0.621304,-0.425921 0.61786,-0.434236 0.63449,-0.441124 0.636212,-0.436966 " stroke="lightgrey" fill="none" style="stroke-width:0.004"/>
		</g>
		<g>
			<polyline points="0.631046,-0.449439 0.63449,-0.441124 0.61786,-0.434236 0.616138,-0.438393 " stroke="lightgrey" fill="none" style="stroke-width:0.004"/>
		</g>
		<g>
			<polyline points="0.614416,-0.18745 0.61786,-0.195764 0.63449,-0.188876 0.632768,-0.184719 " stroke="lightgrey" fill="none" style="stroke-width:0.004"/>
		</g>
		<g>
			<polyline points="0.637934,-0.197191 0.63449,-0.188876 0.61786,-0.195764 0.619582,-0.199922 " stroke="lightgrey" fill="none" style="stroke-width:0.004"/>
		</g>
		<g>
			<polyline points="0.440921,-0.0236958 0.449236,-0.0271399 0.456124,-0.0105101 0.451966,-0.00878803 " stroke="lightgrey" fill="none" style="stroke-width:0.004"/>
		</g>
		<g>
			<polyline points="0.464439,-0.0139543 0.456124,-0.0105101 0.449236,-0.0271399 0.453393,-0.028862 " stroke="lightgrey" fill="none" style="stroke-width:0.004"/>
		</g>
		<g>
			<polyline points="-0.009,0.006 1.00001e-10,0.006 1.00001e-10,0.024 -0.0045,0.024 " stroke="lightgrey" fill="none" style="stroke-width:0.004"/>
		</g>
	</g>
</svg>
